Simulation
nRows=44
nColumns=15
endheader
time  TH_x TH_y TH_z SC_y  SC_z  SC_x  AC_y  AC_z  AC_x  GH_y  GH_z  GH_yy  EL_x  PS_y
1.15  0.000000  0.000000  0.000000  -30.058521565091976  -0.07252782805239333  14.687827668229746  71.02756604994279  -1.1820273034706392  -3.8014137384055897  63.59805549335003  42.300330380685224  -73.33898622968495  29.232028092870554  0.000000
1.173  0.000000  0.000000  0.000000  -30.038715925010237  -0.07488276928440231  14.712115184079101  71.05761112367482  -1.227639665827612  -3.7831070111349416  63.680408142491174  42.242881381339835  -73.31549245658567  29.275323765984606  0.000000
1.196  0.000000  0.000000  0.000000  -30.025701158829204  -0.074274994969937  14.743617309806071  71.06938038380991  -1.2624397873939388  -3.7833988317986194  63.730459203009566  42.201530131409555  -73.28355579075856  29.29856632151682  0.000000
1.219  0.000000  0.000000  0.000000  -30.019496281508317  -0.07045534740516358  14.782122968086476  71.06324735636028  -1.2860469453302772  -3.801763260740921  63.747609094959394  42.17599363964117  -73.24201557319894  29.301192653593127  0.000000
1.242  0.000000  0.000000  0.000000  -30.01995660487647  -0.06308444773999701  14.827145397212764  71.0392208501724  -1.2982342484943479  -3.837809997804795  63.73162131290144  42.166499298561625  -73.18924642629355  29.28266974432623  0.000000
1.265  0.000000  0.000000  0.000000  -30.026995458359412  -0.05215281539177336  14.878526847785576  70.99778572158195  -1.2988571677487502  -3.890896140903594  63.68208907090769  42.17273520948269  -73.12363457656413  29.24264289676462  0.000000
1.288  0.000000  0.000000  0.000000  -30.040412924721593  -0.0376122357626403  14.935996122091424  70.93923401311343  -1.2880469313640552  -3.9606781260387725  63.59883509295182  42.194913801396524  -73.04317203661812  29.180865568434264  0.000000
1.311  0.000000  0.000000  0.000000  -30.060089408673694  -0.019527698889666774  14.99951793995657  70.86427465626812  -1.2659884518920657  -4.046414064222327  63.48161846339626  42.2327111380673  -72.9458664007957  29.097312247373562  0.000000
1.334  0.000000  0.000000  0.000000  -30.085771577025824  0.0021044169522112773  15.068861073008241  70.77335877405038  -1.2329671619963753  -4.147483999429075  63.33051806502977  42.286176939398345  -72.82934635773118  28.99204146973626  0.000000
1.357  0.000000  0.000000  0.000000  -30.117238550618612  0.027469777459835972  15.143940184600625  70.66745714599311  -1.1891812361322378  -4.262799742188976  63.145614397696455  42.35484637133143  -72.69123859054409  28.865345885048587  0.000000
1.38  0.000000  0.000000  0.000000  -30.154168365922924  0.05662711399058216  15.224500921498962  70.54716222543708  -1.1349763223797122  -4.391437454160307  62.927310717386234  42.43863617310944  -72.52888984922885  28.7175992033094  0.000000
1.403  0.000000  0.000000  0.000000  -30.196320077935685  0.08963835859538438  15.31048234322523  70.413721773505  -1.0706822956734694  -4.532153061039455  62.6758312463235  42.53704641962442  -72.33979579400334  28.54939720461148  0.000000
1.426  0.000000  0.000000  0.000000  -30.243359392981922  0.126457366544414  15.401698842674381  70.26801924060902  -0.9967966909800795  -4.683889081996508  62.39175057889783  42.64999075278951  -72.12123795639823  28.361348793548807  0.000000
1.449  0.000000  0.000000  0.000000  -30.295087452568204  0.16707908576647865  15.498166656045386  70.11150879445816  -0.9137964315927599  -4.845232518259808  62.075571885281725  42.776836061938056  -71.87068351701583  28.154474104577417  0.000000
1.472  0.000000  0.000000  0.000000  -30.351236121320046  0.21143024060239393  15.599716927652361  69.94523996487823  -0.8223311250907113  -5.015063237451598  61.7282244127589  42.91750873642431  -71.58541927075686  27.92986399740116  0.000000
1.4949999999999999  0.000000  0.000000  0.000000  -30.411650310872574  0.2593642197586471  15.706384438679578  69.77083651958989  -0.7229902974396935  -5.191850085136599  61.350505628986454  43.07139928732806  -71.26299432549119  27.688775525588937  0.000000
1.518  0.000000  0.000000  0.000000  -30.476085133638964  0.31067044187053056  15.818035490741279  69.58968736484017  -0.6164708738315328  -5.37441280430623  60.94357899543553  43.23847131053114  -70.90092422562962  27.43256950193911  0.000000
1.541  0.000000  0.000000  0.000000  -30.54445291084802  0.36507552991415404  15.934724259461117  69.40369625453125  -0.5033966410861651  -5.561083851548952  60.50853545246368  43.41805273255057  -70.49704729570047  27.162854234742632  0.000000
1.564  0.000000  0.000000  0.000000  -30.61658296613174  0.4222355659194995  16.056293757033625  69.21455096937568  -0.3844945996623068  -5.750579135173521  60.046861692015746  43.610071702067295  -70.04928319798783  26.881294483471248  0.000000
1.587  0.000000  0.000000  0.000000  -30.692430749692267  0.48174516298387765  16.18276539553683  69.024396439666  -0.2603861172201595  -5.941158016256918  59.560028298033274  43.81368852855742  -69.55594477752715  26.589824824173004  0.000000
1.6099999999999999  0.000000  0.000000  0.000000  -30.77185009882388  0.5430507581920276  16.313909862460353  68.83514441276186  -0.13182544770467935  -6.131542137782131  59.04990461154063  44.02863688504388  -69.01559562324972  26.29029690365672  0.000000
1.633  0.000000  0.000000  0.000000  -30.8547603441323  0.6055359184494572  16.44969068355089  68.64903841138744  0.0005315422011323044  -6.320084226520899  58.5183916818667  44.253637381855164  -68.42727191811369  25.9848636644752  0.000000
1.656  0.000000  0.000000  0.000000  -30.94103156219582  0.6683130407752519  16.589793561619935  68.46802511224537  0.13582921481731366  -6.505826191852535  57.96783392020341  44.48793605309547  -67.79039957889523  25.675504456536075  0.000000
1.679  0.000000  0.000000  0.000000  -31.030508820148384  0.7303682820273172  16.734108854832478  68.29408404183832  0.2731761610747488  -6.687598178328819  57.40056129540634  44.7295146889844  -67.10503638524108  25.364455009846264  0.000000
1.702  0.000000  0.000000  0.000000  -31.122887580746394  0.7904047701789026  16.88232577436399  68.12868913688328  0.4114513174307659  -6.865344905696488  56.81944624927762  44.976782715514666  -66.37167391540646  25.0536147005917  0.000000
1.7249999999999999  0.000000  0.000000  0.000000  -31.217777667048182  0.8468797736466915  17.034290908070567  67.97306248242218  0.5492623636786519  -7.03897967580648  56.22712406998726  45.22699888251664  -65.59176331505569  24.745206834713045  0.000000
1.748  0.000000  0.000000  0.000000  -31.314754313832626  0.8979506462178969  17.18988822623476  67.82776833291823  0.6850577916436251  -7.209770077641792  55.62699173530895  45.47782133824013  -64.76712559289513  24.441268354750715  0.000000
1.771  0.000000  0.000000  0.000000  -31.413226120548583  0.9415616058179044  17.349004442879057  67.69321266949807  0.8167762763179347  -7.379115440575195  55.021673933934935  45.72660739871042  -63.90120527195871  24.144114287823687  0.000000
1.794  0.000000  0.000000  0.000000  -31.51271934681953  0.9755825775992867  17.511969421310926  67.56862390948496  0.9425996267631227  -7.549478118569902  54.415172084148736  45.97101237508196  -62.997144796897366  23.856168994785623  0.000000
1.817  0.000000  0.000000  0.000000  -31.6125554526259  0.9979481267454064  17.67866814750179  67.45409767435652  1.060220310429126  -7.723490965979784  53.80972747809813  46.21020095554909  -62.06092905864896  23.57996233878899  0.000000
1.8399999999999999  0.000000  0.000000  0.000000  -31.712337581434383  1.0072383908779208  17.849900094034986  67.34739317554637  1.1683206245955917  -7.903297977396738  53.210057733026595  46.44315135492651  -61.096924189400035  23.318928998732265  0.000000
1.863  0.000000  0.000000  0.000000  -31.81129835345277  1.0027439655408692  18.02526451862008  67.24954317369618  1.265718773097437  -8.091265634466199  52.61777483203955  46.672950235346484  -60.11418886927914  23.076149849704095  0.000000
1.886  0.000000  0.000000  0.000000  -31.909315080000564  0.9852765652001781  18.205624849265792  67.15767461359997  1.3528825640090874  -8.286028416423715  52.038091143885865  46.901677398082484  -59.11880190845564  22.856514283017876  0.000000
1.909  0.000000  0.000000  0.000000  -32.006410681927875  0.9571446736923661  18.38986115263618  67.07588579355918  1.431773455188112  -8.486858175291363  51.472180651201704  47.1376203818482  -58.12312914783253  22.664502897713845  0.000000
1.932  0.000000  0.000000  0.000000  -32.10322450755685  0.9230766968058827  18.578082824553963  67.00180142307867  1.5058569293927266  -8.68538814156231  50.92531982187243  47.38646503208467  -57.13543830334818  22.506209603862164  0.000000
1.955  0.000000  0.000000  0.000000  -32.20043366676768  0.8901321446019427  18.76743664443845  66.94333464585227  1.5816816669093248  -8.874891458655178  50.397962794994704  47.660231358021754  -56.17139806235735  22.3853424011829  0.000000
1.978  0.000000  0.000000  0.000000  -32.29879332328206  0.8685728477940119  18.95559493693005  66.89842418116581  1.6669540759880603  -9.03777476767615  49.89504061178888  47.964550191808804  -55.23995619379829  22.308407568849134  0.000000
2.001  0.000000  0.000000  0.000000  -32.39976249204544  0.8707319229204001  19.13694000726369  66.8785035887694  1.773800972131369  -9.159413813224797  49.41727450110091  48.307655922613854  -54.3595493770517  22.277910455385836  0.000000
2.024  0.000000  0.000000  0.000000  -32.50484197898753  0.9091872939491251  19.303986076206982  66.88354747556774  1.9119064834643253  -9.214053204899155  48.96764085695429  48.68962537437522  -53.5437173323561  22.29835408531387  0.000000
2.047  0.000000  0.000000  0.000000  -32.617232656924955  0.9964670742100247  19.44899402988682  66.92518654338387  2.0970484438462855  -9.184090749755397  48.55166169040522  49.10241151776569  -52.811586818146594  22.369039836591448  0.000000
2.07  0.000000  0.000000  0.000000  -32.73742321891814  1.1394057488100469  19.559383803276287  67.00310757298445  2.3352856074548107  -9.049544034137254  48.17340875295921  49.53030849841214  -52.18322096498265  22.489148875783084  0.000000
2.093  0.000000  0.000000  0.000000  -32.86873856378989  1.3376323369207408  19.62932186518434  67.11765295146284  2.635121125892669  -8.80853563327914  47.851936888663346  49.93857575846043  -51.677402506327404  22.654934949115628  0.000000
2.116  0.000000  0.000000  0.000000  -32.99966642498222  1.57875206120741  19.647533924448812  67.26028365134486  2.984430208447277  -8.47847607663748  47.597849603019945  50.29507030624863  -51.32626311842224  22.85670686603593  0.000000
2.139  0.000000  0.000000  0.000000  -33.11997997457631  1.8333803848295929  19.61789767248191  67.41183947991401  3.367302990967696  -8.095737556594568  47.445141118809396  50.54607180719416  -51.14537622776178  23.08167213093049  0.000000
